<svg xmlns="http://www.w3.org/2000/svg" viewBox="0 0 120 120" fill="none">
  <circle cx="60" cy="60" r="55" fill="#fff8e7" stroke="#f5a623" stroke-width="4"/>
  <!-- Saffron flower petals -->
  <ellipse cx="60" cy="25" rx="8" ry="20" fill="#f5a623" opacity="0.9"/>
  <ellipse cx="60" cy="25" rx="8" ry="20" fill="#f5a623" opacity="0.9" transform="rotate(45 60 60)"/>
  <ellipse cx="60" cy="25" rx="8" ry="20" fill="#f5a623" opacity="0.9" transform="rotate(90 60 60)"/>
  <ellipse cx="60" cy="25" rx="8" ry="20" fill="#f5a623" opacity="0.9" transform="rotate(135 60 60)"/>
  <ellipse cx="60" cy="25" rx="8" ry="20" fill="#f7c668" opacity="0.8" transform="rotate(22.5 60 60)"/>
  <ellipse cx="60" cy="25" rx="8" ry="20" fill="#f7c668" opacity="0.8" transform="rotate(67.5 60 60)"/>
  <ellipse cx="60" cy="25" rx="8" ry="20" fill="#f7c668" opacity="0.8" transform="rotate(112.5 60 60)"/>
  <ellipse cx="60" cy="25" rx="8" ry="20" fill="#f7c668" opacity="0.8" transform="rotate(157.5 60 60)"/>
  <!-- Center -->
  <circle cx="60" cy="60" r="12" fill="#c47d0e"/>
  <circle cx="60" cy="60" r="7" fill="#f5a623"/>
</svg>
